  0
SECTION
  2
HEADER
  9
$ACADVER
  1
AC1009
  9
$LIMMIN
 10
0.000000
 20
0.000000
  9
$LIMMAX
 10
200.220000
 20
114.902357
  0
ENDSEC
  0
SECTION
  2
TABLES
  0
TABLE
  2
LTYPE
 70
     4
  0
LTYPE
  2
CONTINUOUS
 70
     0
  3
Solid line
 72
    65
 73
     0
 40
0.000000
  0
LTYPE
  2
HIDDEN
 70
     0
  3
 _ _ _ _ _ _ _ _ _ _ _
 72
    65
 73
     2
 40
0.375000
 49
0.250000
 49
-0.125000
  0
LTYPE
  2
DASHED
 70
     0
  3
 ___ ___ ___ ___ ___ ___ ___ 
 72
    65
 73
     2
 40
0.750000
 49
0.500000
 49
-0.250000
  0
LTYPE
  2
CENTER
 70
     0
  3
___ _ ___ _ ___ _ ___
 72
    65
 73
     4
 40
2.000000
 49
1.250000
 49
-0.250000
 49
0.250000
 49
-0.250000
  0
LTYPE
  2
BORDER
 70
     0
  3
___ ___ . ___ ___ . ___ ___
 72
    65
 73
     6
 40
1.750000
 49
0.500000
 49
-0.250000
 49
0.500000
 49
-0.250000
 49
0.000000
 49
-0.250000
  0
LTYPE
  2
DOT
 70
     0
  3
.................
 72
    65
 73
     2
 40
0.250000
 49
0.000000
 49
-0.250000
  0
LTYPE
  2
DASHDOT
 70
     0
  3
__ . __ . __ . __
 72
    65
 73
     4
 40
1.000000
 49
0.500000
 49
-0.250000
 49
0.000000
 49
-0.250000
  0
LTYPE
  2
DIVIDE
 70
     0
  3
___ .. ___ .. ___ .. ___
 72
    65
 73
     6
 40
1.250000
 49
0.500000
 49
-0.250000
 49
0.000000
 49
-0.250000
 49
0.000000
 49
-0.250000
  0
ENDTAB
  0
TABLE
  2
LAYER
 70
     8
  0
LAYER
  2
BLACK
 70
     0
 62
     1
  6
CONTINUOUS
  0
LAYER
  2
WHITE
 70
     0
 62
     7
  6
CONTINUOUS
  0
LAYER
  2
RED
 70
     0
 62
     1
  6
CONTINUOUS
  0
LAYER
  2
YELLOW
 70
     0
 62
     2
  6
CONTINUOUS
  0
LAYER
  2
GREEN
 70
     0
 62
     3
  6
CONTINUOUS
  0
LAYER
  2
CYAN
 70
     0
 62
     4
  6
CONTINUOUS
  0
LAYER
  2
BLUE
 70
     0
 62
     5
  6
CONTINUOUS
  0
LAYER
  2
MAGENTA
 70
     0
 62
     6
  6
CONTINUOUS
  0
ENDTAB
  0
ENDSEC
  0
SECTION
  2
BLOCKS
  0
ENDSEC
  0
SECTION
  2
ENTITIES
  0
LINE
  8
WHITE
 10
106.310000
 20
102.560000
 30
0.000000
 11
93.910000
 21
102.560000
 31
0.000000
  6
CONTINUOUS
  0
ARC
  8
WHITE
 10
93.907406
 20
103.559998
 30
0.000000
 40
1.000001
 50
-143.843203
 51
-89.851385
  6
CONTINUOUS
  0
LINE
  8
WHITE
 10
93.100000
 20
102.970000
 30
0.000000
 11
84.520000
 21
114.780000
 31
0.000000
  6
CONTINUOUS
  0
ARC
  8
WHITE
 10
84.278250
 20
114.602357
 30
0.000000
 40
0.300000
 50
36.309165
 51
186.191846
  6
CONTINUOUS
  0
ARC
  8
WHITE
 10
5.449964
 20
104.291255
 30
0.000000
 40
79.199868
 50
-18.561625
 51
7.457016
  6
CONTINUOUS
  0
ARC
  8
WHITE
 10
68.028988
 20
85.815432
 30
0.000000
 40
14.200048
 50
-54.326332
 51
-28.315383
  6
CONTINUOUS
  0
ARC
  8
WHITE
 10
69.713194
 20
83.331064
 30
0.000000
 40
11.199983
 50
-106.458530
 51
-53.913819
  6
CONTINUOUS
  0
ARC
  8
WHITE
 10
71.809597
 20
91.260604
 30
0.000000
 40
19.400002
 50
116.115708
 51
254.238794
  6
CONTINUOUS
  0
ARC
  8
WHITE
 10
63.235000
 20
108.775000
 30
0.000000
 40
0.101242
 50
-69.775141
 51
110.224859
  6
CONTINUOUS
  0
ARC
  8
WHITE
 10
87.414101
 20
-2.856118
 30
0.000000
 40
114.319937
 50
102.228442
 51
120.327017
  6
CONTINUOUS
  0
ARC
  8
WHITE
 10
67.035159
 20
31.969253
 30
0.000000
 40
73.970121
 50
120.322601
 51
144.693785
  6
CONTINUOUS
  0
ARC
  8
WHITE
 10
36.259927
 20
53.762459
 30
0.000000
 40
36.259927
 50
144.691353
 51
180.003885
  6
CONTINUOUS
  0
ARC
  8
WHITE
 10
36.260014
 20
53.767570
 30
0.000000
 40
36.260014
 50
-179.988038
 51
-144.691395
  6
CONTINUOUS
  0
ARC
  8
WHITE
 10
67.035159
 20
75.560747
 30
0.000000
 40
73.970121
 50
-144.693785
 51
-120.322601
  6
CONTINUOUS
  0
ARC
  8
WHITE
 10
87.442012
 20
110.369752
 30
0.000000
 40
114.319909
 50
-120.343232
 51
-108.456548
  6
CONTINUOUS
  0
ARC
  8
WHITE
 10
51.270797
 20
2.027814
 30
0.000000
 40
0.100000
 50
-102.003099
 51
46.208557
  6
CONTINUOUS
  0
ARC
  8
WHITE
 10
79.977409
 20
35.768146
 30
0.000000
 40
44.200060
 50
-153.737049
 51
-130.383781
  6
CONTINUOUS
  0
ARC
  8
WHITE
 10
67.508688
 20
33.899527
 30
0.000000
 40
32.420008
 50
-160.972700
 51
-146.931857
  6
CONTINUOUS
  0
ARC
  8
WHITE
 10
57.305987
 20
30.388193
 30
0.000000
 40
21.629990
 50
-177.938195
 51
-160.954728
  6
CONTINUOUS
  0
ARC
  8
WHITE
 10
49.601002
 20
30.108855
 30
0.000000
 40
13.919944
 50
157.614838
 51
182.053773
  6
CONTINUOUS
  0
ARC
  8
WHITE
 10
42.868344
 20
32.882470
 30
0.000000
 40
6.638349
 50
123.019883
 51
157.620049
  6
CONTINUOUS
  0
ARC
  8
WHITE
 10
42.868344
 20
32.882470
 30
0.000000
 40
6.640016
 50
88.432321
 51
123.019883
  6
CONTINUOUS
  0
ARC
  8
WHITE
 10
42.653854
 20
25.605671
 30
0.000000
 40
13.919967
 50
63.935713
 51
88.369210
  6
CONTINUOUS
  0
ARC
  8
WHITE
 10
39.270188
 20
18.677793
 30
0.000000
 40
21.630004
 50
46.934101
 51
63.947404
  6
CONTINUOUS
  0
ARC
  8
WHITE
 10
31.919000
 20
10.779418
 30
0.000000
 40
32.419997
 50
33.028212
 51
46.974344
  6
CONTINUOUS
  0
ARC
  8
WHITE
 10
31.911863
 20
10.790375
 30
0.000000
 40
32.420012
 50
17.390220
 51
33.005103
  6
CONTINUOUS
  0
ARC
  8
WHITE
 10
62.945000
 20
20.511225
 30
0.000000
 40
0.100000
 50
-161.805092
 51
-18.194908
  6
CONTINUOUS
  0
ARC
  8
WHITE
 10
89.795302
 20
12.499915
 30
0.000000
 40
27.920028
 50
139.641596
 51
163.392167
  6
CONTINUOUS
  0
ARC
  8
WHITE
 10
76.062800
 20
24.014436
 30
0.000000
 40
10.000023
 50
99.049033
 51
138.962345
  6
CONTINUOUS
  0
ARC
  8
WHITE
 10
76.209286
 20
24.221691
 30
0.000000
 40
9.819987
 50
60.398585
 51
100.083330
  6
CONTINUOUS
  0
ARC
  8
WHITE
 10
67.232109
 20
8.504897
 30
0.000000
 40
27.919896
 50
36.519693
 51
60.312435
  6
CONTINUOUS
  0
ARC
  8
WHITE
 10
50.529405
 20
-3.924787
 30
0.000000
 40
48.739982
 50
21.716875
 51
36.577742
  6
CONTINUOUS
  0
ARC
  8
WHITE
 10
22.431855
 20
-15.077595
 30
0.000000
 40
78.970045
 50
11.154812
 51
21.691158
  6
CONTINUOUS
  0
ARC
  8
WHITE
 10
100.110000
 20
0.200000
 30
0.000000
 40
0.200000
 50
180.000000
 51
360.000000
  6
CONTINUOUS
  0
ARC
  8
WHITE
 10
177.788146
 20
-15.077595
 30
0.000000
 40
78.970045
 50
158.308842
 51
168.845188
  6
CONTINUOUS
  0
ARC
  8
WHITE
 10
149.690596
 20
-3.924787
 30
0.000000
 40
48.739982
 50
143.422258
 51
158.283125
  6
CONTINUOUS
  0
ARC
  8
WHITE
 10
132.980627
 20
8.495000
 30
0.000000
 40
27.919951
 50
119.646728
 51
143.455114
  6
CONTINUOUS
  0
ARC
  8
WHITE
 10
124.018335
 20
24.220330
 30
0.000000
 40
9.819995
 50
79.961838
 51
119.585427
  6
CONTINUOUS
  0
ARC
  8
WHITE
 10
124.157200
 20
24.014436
 30
0.000000
 40
10.000023
 50
41.037655
 51
80.950967
  6
CONTINUOUS
  0
ARC
  8
WHITE
 10
110.424698
 20
12.499915
 30
0.000000
 40
27.920028
 50
16.607833
 51
40.358404
  6
CONTINUOUS
  0
ARC
  8
WHITE
 10
137.275000
 20
20.511225
 30
0.000000
 40
0.100000
 50
-161.805092
 51
-18.194908
  6
CONTINUOUS
  0
ARC
  8
WHITE
 10
168.308137
 20
10.790375
 30
0.000000
 40
32.420012
 50
146.994897
 51
162.609780
  6
CONTINUOUS
  0
ARC
  8
WHITE
 10
168.301000
 20
10.779418
 30
0.000000
 40
32.419997
 50
133.025656
 51
146.971788
  6
CONTINUOUS
  0
ARC
  8
WHITE
 10
160.949812
 20
18.677793
 30
0.000000
 40
21.630004
 50
116.052596
 51
133.065899
  6
CONTINUOUS
  0
ARC
  8
WHITE
 10
157.566146
 20
25.605671
 30
0.000000
 40
13.919967
 50
91.630790
 51
116.064287
  6
CONTINUOUS
  0
ARC
  8
WHITE
 10
157.349219
 20
32.884090
 30
0.000000
 40
6.638330
 50
56.954870
 51
91.547040
  6
CONTINUOUS
  0
ARC
  8
WHITE
 10
157.349219
 20
32.884090
 30
0.000000
 40
6.639986
 50
22.359019
 51
56.954870
  6
CONTINUOUS
  0
ARC
  8
WHITE
 10
150.618998
 20
30.108855
 30
0.000000
 40
13.919944
 50
-2.053773
 51
22.385162
  6
CONTINUOUS
  0
ARC
  8
WHITE
 10
142.914014
 20
30.388193
 30
0.000000
 40
21.629990
 50
-19.045272
 51
-2.061805
  6
CONTINUOUS
  0
ARC
  8
WHITE
 10
132.711313
 20
33.899527
 30
0.000000
 40
32.420008
 50
-33.068143
 51
-19.027300
  6
CONTINUOUS
  0
ARC
  8
WHITE
 10
120.242591
 20
35.768146
 30
0.000000
 40
44.200060
 50
-49.616219
 51
-26.262951
  6
CONTINUOUS
  0
ARC
  8
WHITE
 10
148.949204
 20
2.027814
 30
0.000000
 40
0.100000
 50
133.791443
 51
282.003099
  6
CONTINUOUS
  0
ARC
  8
WHITE
 10
112.801176
 20
110.377668
 30
0.000000
 40
114.320079
 50
-71.555731
 51
-59.664476
  6
CONTINUOUS
  0
ARC
  8
WHITE
 10
133.177663
 20
75.550873
 30
0.000000
 40
73.970273
 50
-59.662052
 51
-35.296761
  6
CONTINUOUS
  0
ARC
  8
WHITE
 10
163.959987
 20
53.767570
 30
0.000000
 40
36.260014
 50
-35.308605
 51
-0.011962
  6
CONTINUOUS
  0
ARC
  8
WHITE
 10
163.960073
 20
53.762459
 30
0.000000
 40
36.259927
 50
-0.003885
 51
35.308647
  6
CONTINUOUS
  0
ARC
  8
WHITE
 10
133.177663
 20
31.979127
 30
0.000000
 40
73.970273
 50
35.296761
 51
59.662052
  6
CONTINUOUS
  0
ARC
  8
WHITE
 10
112.821748
 20
-2.859645
 30
0.000000
 40
114.320029
 50
59.676406
 51
77.779696
  6
CONTINUOUS
  0
ARC
  8
WHITE
 10
136.985000
 20
108.775000
 30
0.000000
 40
0.101242
 50
69.775141
 51
249.775141
  6
CONTINUOUS
  0
ARC
  8
WHITE
 10
128.410403
 20
91.260604
 30
0.000000
 40
19.400002
 50
-74.238794
 51
63.884292
  6
CONTINUOUS
  0
ARC
  8
WHITE
 10
130.506807
 20
83.331064
 30
0.000000
 40
11.199983
 50
-126.086181
 51
-73.541470
  6
CONTINUOUS
  0
ARC
  8
WHITE
 10
132.191013
 20
85.815432
 30
0.000000
 40
14.200048
 50
-151.684617
 51
-125.673668
  6
CONTINUOUS
  0
ARC
  8
WHITE
 10
194.770036
 20
104.291255
 30
0.000000
 40
79.199868
 50
172.542984
 51
198.561625
  6
CONTINUOUS
  0
ARC
  8
WHITE
 10
115.941750
 20
114.602357
 30
0.000000
 40
0.300000
 50
-6.191846
 51
143.690835
  6
CONTINUOUS
  0
LINE
  8
WHITE
 10
115.700000
 20
114.780000
 30
0.000000
 11
107.120000
 21
102.970000
 31
0.000000
  6
CONTINUOUS
  0
ARC
  8
WHITE
 10
106.312594
 20
103.559998
 30
0.000000
 40
1.000001
 50
-90.148615
 51
-36.156797
  6
CONTINUOUS
  0
ENDSEC
  0
EOF
